<svg width="201" height="34" viewBox="0 0 201 34" fill="none" xmlns="http://www.w3.org/2000/svg">
<path d="M1.97413 34C1.65413 34 1.38213 33.888 1.15813 33.664C0.934125 33.44 0.822125 33.168 0.822125 32.848V1.552C0.822125 1.2 0.934125 0.927999 1.15813 0.735999C1.38213 0.511998 1.65413 0.399998 1.97413 0.399998H6.43813C6.79013 0.399998 7.06213 0.511998 7.25413 0.735999C7.47813 0.927999 7.59013 1.2 7.59013 1.552V28.288H22.8061C23.1581 28.288 23.4461 28.4 23.6701 28.624C23.8941 28.848 24.0061 29.136 24.0061 29.488V32.848C24.0061 33.2 23.8941 33.488 23.6701 33.712C23.4461 33.904 23.1581 34 22.8061 34H1.97413ZM142.646 34C142.326 34 142.054 33.888 141.83 33.664C141.606 33.44 141.494 33.168 141.494 32.848V1.6C141.494 1.248 141.59 0.959998 141.782 0.735999C142.006 0.511998 142.294 0.399998 142.646 0.399998H155.078C158.982 0.399998 162.038 1.312 164.246 3.136C166.486 4.96 167.606 7.552 167.606 10.912C167.606 13.248 167.03 15.216 165.878 16.816C164.758 18.384 163.19 19.52 161.174 20.224L168.182 32.464C168.278 32.656 168.326 32.832 168.326 32.992C168.326 33.28 168.214 33.52 167.99 33.712C167.798 33.904 167.574 34 167.318 34H162.95C162.438 34 162.038 33.888 161.75 33.664C161.494 33.44 161.254 33.12 161.03 32.704L154.838 21.328H148.166V32.848C148.166 33.168 148.054 33.44 147.83 33.664C147.638 33.888 147.366 34 147.014 34H142.646ZM154.934 15.904C156.854 15.904 158.294 15.472 159.254 14.608C160.246 13.744 160.742 12.496 160.742 10.864C160.742 9.232 160.246 7.968 159.254 7.072C158.294 6.176 156.854 5.728 154.934 5.728H148.166V15.904H154.934Z" fill="#F05A24"/>
<path d="M29.8179 34C29.4979 34 29.2259 33.888 29.0019 33.664C28.7779 33.44 28.6659 33.168 28.6659 32.848V1.552C28.6659 1.2 28.7779 0.927999 29.0019 0.735999C29.2259 0.511998 29.4979 0.399998 29.8179 0.399998H34.3299C34.6819 0.399998 34.9539 0.511998 35.1459 0.735999C35.3699 0.927999 35.4819 1.2 35.4819 1.552V32.848C35.4819 33.168 35.3699 33.44 35.1459 33.664C34.9539 33.888 34.6819 34 34.3299 34H29.8179Z" fill="#8BC53F"/>
<path d="M44.1616 34C43.8416 34 43.5696 33.888 43.3456 33.664C43.1216 33.44 43.0096 33.168 43.0096 32.848V1.6C43.0096 1.248 43.1056 0.959998 43.2976 0.735999C43.5216 0.511998 43.8096 0.399998 44.1616 0.399998H58.0816C61.8256 0.399998 64.6096 1.232 66.4336 2.896C68.2896 4.528 69.2176 6.768 69.2176 9.616C69.2176 11.28 68.8016 12.704 67.9696 13.888C67.1696 15.04 66.2256 15.872 65.1376 16.384C66.4816 16.992 67.6016 17.984 68.4976 19.36C69.4256 20.736 69.8896 22.304 69.8896 24.064C69.8896 27.04 68.8816 29.44 66.8656 31.264C64.8816 33.088 62.0816 34 58.4656 34H44.1616ZM57.2176 14.176C58.8816 14.176 60.1456 13.776 61.0096 12.976C61.8736 12.176 62.3056 11.104 62.3056 9.76C62.3056 8.384 61.8736 7.328 61.0096 6.592C60.1456 5.824 58.8816 5.44 57.2176 5.44H49.6816V14.176H57.2176ZM57.6976 28.912C59.3616 28.912 60.6576 28.464 61.5856 27.568C62.5136 26.64 62.9776 25.472 62.9776 24.064C62.9776 22.624 62.5136 21.456 61.5856 20.56C60.6576 19.632 59.3616 19.168 57.6976 19.168H49.6816V28.912H57.6976ZM183.775 34C183.455 34 183.183 33.888 182.959 33.664C182.735 33.44 182.623 33.168 182.623 32.848V22L171.295 1.936C171.199 1.776 171.151 1.6 171.151 1.408C171.151 1.12 171.247 0.879999 171.439 0.688C171.631 0.495998 171.855 0.399998 172.111 0.399998H176.383C176.735 0.399998 177.023 0.495998 177.247 0.688C177.503 0.879999 177.695 1.088 177.823 1.312L185.983 15.28L194.095 1.312C194.479 0.703998 194.975 0.399998 195.583 0.399998H199.807C200.095 0.399998 200.335 0.495998 200.527 0.688C200.719 0.879999 200.815 1.12 200.815 1.408C200.815 1.6 200.767 1.776 200.671 1.936L189.343 22V32.848C189.343 33.168 189.231 33.44 189.007 33.664C188.783 33.888 188.495 34 188.143 34H183.775Z" fill="#FAAF3B"/>
<path d="M77.0679 34C76.7479 34 76.4759 33.888 76.2519 33.664C76.0279 33.44 75.9159 33.168 75.9159 32.848V1.6C75.9159 1.248 76.0119 0.959998 76.2039 0.735999C76.4279 0.511998 76.7159 0.399998 77.0679 0.399998H89.4999C93.4039 0.399998 96.4599 1.312 98.6679 3.136C100.908 4.96 102.028 7.552 102.028 10.912C102.028 13.248 101.452 15.216 100.3 16.816C99.1799 18.384 97.6119 19.52 95.5959 20.224L102.604 32.464C102.7 32.656 102.748 32.832 102.748 32.992C102.748 33.28 102.636 33.52 102.412 33.712C102.22 33.904 101.996 34 101.74 34H97.3719C96.8599 34 96.4599 33.888 96.1719 33.664C95.9159 33.44 95.6759 33.12 95.4519 32.704L89.2599 21.328H82.5879V32.848C82.5879 33.168 82.4759 33.44 82.2519 33.664C82.0599 33.888 81.7879 34 81.4359 34H77.0679ZM89.3559 15.904C91.2759 15.904 92.7159 15.472 93.6759 14.608C94.6679 13.744 95.1639 12.496 95.1639 10.864C95.1639 9.232 94.6679 7.968 93.6759 7.072C92.7159 6.176 91.2759 5.728 89.3559 5.728H82.5879V15.904H89.3559Z" fill="#62C4BC"/>
<path d="M106.149 34C105.893 34 105.653 33.904 105.429 33.712C105.237 33.52 105.141 33.28 105.141 32.992L105.237 32.56L116.805 1.6C117.029 0.799998 117.589 0.399998 118.485 0.399998H123.717C124.549 0.399998 125.109 0.799998 125.397 1.6L136.965 32.56C136.997 32.656 137.013 32.8 137.013 32.992C137.013 33.28 136.917 33.52 136.725 33.712C136.533 33.904 136.309 34 136.053 34H131.877C131.461 34 131.141 33.904 130.917 33.712C130.693 33.52 130.549 33.312 130.485 33.088L128.229 27.232H113.973L111.717 33.088C111.461 33.696 110.997 34 110.325 34H106.149ZM126.549 21.712L121.077 6.88L115.653 21.712H126.549Z" fill="#A362C4"/>
</svg>
