<svg width="70" height="70" viewBox="0 0 70 70" fill="none" xmlns="http://www.w3.org/2000/svg">
<path d="M35 0L0 21.875H70L35 0ZM54.6875 26.25L56.875 30.625V56.875H65.625V30.625L67.8125 26.25H54.6875ZM37.1875 26.25L39.375 30.625V56.875H48.125V30.625L50.3125 26.25H37.1875ZM19.6875 26.25L21.875 30.625V56.875H30.625V30.625L32.8125 26.25H19.6875ZM2.1875 26.25L4.375 30.625V56.875H13.125V30.625L15.3125 26.25H2.1875ZM2.1875 61.25L0 70H70L67.8125 61.25H2.1875ZM39.375 13.125C39.375 15.5412 37.4162 17.5 35 17.5C32.5838 17.5 30.625 15.5412 30.625 13.125C30.625 10.7088 32.5838 8.75 35 8.75C37.4162 8.75 39.375 10.7088 39.375 13.125Z" fill="url(#paint0_linear)"/>
<defs>
<linearGradient id="paint0_linear" x1="0" y1="35" x2="70" y2="35" gradientUnits="userSpaceOnUse">
<stop stop-color="#FFBE2E"/>
<stop offset="1" stop-color="#F6921E"/>
</linearGradient>
</defs>
</svg>
